<?xml version="1.0" encoding="utf-8"?>
<!-- Generator: Adobe Illustrator 16.0.0, SVG Export Plug-In . SVG Version: 6.00 Build 0)  -->
<!DOCTYPE svg PUBLIC "-//W3C//DTD SVG 1.1//EN" "http://www.w3.org/Graphics/SVG/1.1/DTD/svg11.dtd">
<svg version="1.1" id="Layer_1" xmlns="http://www.w3.org/2000/svg" xmlns:xlink="http://www.w3.org/1999/xlink" x="0px" y="0px"
	 width="25px" height="25px" viewBox="0 0 25 25" enable-background="new 0 0 25 25" xml:space="preserve">
<g>
	<g>
		<path fill="#5CBE4C" d="M12.489,25c6.889,0,12.51-5.6,12.51-12.511C24.999,5.577,19.399,0,12.489,0
			C5.577,0-0.001,5.6-0.001,12.489C-0.001,19.381,5.599,25,12.489,25L12.489,25z M12.489,1.745c5.92,0,10.744,4.822,10.744,10.744
			c0,5.921-4.824,10.745-10.744,10.745c-5.922,0-10.746-4.824-10.746-10.745C1.743,6.567,6.567,1.745,12.489,1.745L12.489,1.745z
			 M12.489,1.745"/>
	</g>
	<g>
		<path fill="#5CBE4C" d="M13.735,14.854l4.992-5.982c0.301-0.365,0.258-0.926-0.107-1.25c-0.367-0.301-0.926-0.258-1.25,0.109
			l-5.023,6.018"/>
		<path fill="#5CBE4C" d="M15.518,9.921l-4.557,5.458L7.58,12c-0.344-0.344-0.904-0.344-1.248,0c-0.346,0.344-0.346,0.905,0,1.249
			l4.068,4.069c0.174,0.174,0.389,0.26,0.625,0.26h0.043c0.236-0.023,0.475-0.131,0.646-0.324l5.193-6.226"/>
		<path fill="#5CBE4C" d="M7.58,12"/>
	</g>
</g>
</svg>
