<?xml version="1.0" encoding="utf-8"?>
<!-- Generator: Adobe Illustrator 16.0.0, SVG Export Plug-In . SVG Version: 6.00 Build 0)  -->
<!DOCTYPE svg PUBLIC "-//W3C//DTD SVG 1.1//EN" "http://www.w3.org/Graphics/SVG/1.1/DTD/svg11.dtd">
<svg version="1.1" id="Layer_1" xmlns="http://www.w3.org/2000/svg" xmlns:xlink="http://www.w3.org/1999/xlink" x="0px" y="0px"
	 width="25px" height="25px" viewBox="0 0 25 25" enable-background="new 0 0 25 25" xml:space="preserve">
<g>
	<path fill="#E4C217" d="M12.5,25C19.409,25,25,19.387,25,12.5C25,5.592,19.387,0,12.5,0S0,5.592,0,12.5C0,19.387,5.591,25,12.5,25
		L12.5,25z M12.5,1.749c5.937,0,10.751,4.814,10.751,10.751c0,5.938-4.814,10.752-10.751,10.752S1.749,18.414,1.749,12.5
		C1.749,6.563,6.563,1.749,12.5,1.749L12.5,1.749z M12.5,1.749"/>
	<path fill="#E4C217" d="M11.917,13.969h4.167c0.497,0,0.885-0.389,0.885-0.886c0-0.496-0.388-0.885-0.885-0.885h-3.281V7.06
		c0-0.496-0.39-0.885-0.886-0.885s-0.886,0.389-0.886,0.885v6.023C11.031,13.58,11.421,13.969,11.917,13.969L11.917,13.969z
		 M11.917,13.969"/>
</g>
</svg>
