<?xml version="1.0" encoding="utf-8"?>
<!-- Generator: Adobe Illustrator 16.0.0, SVG Export Plug-In . SVG Version: 6.00 Build 0)  -->
<!DOCTYPE svg PUBLIC "-//W3C//DTD SVG 1.1//EN" "http://www.w3.org/Graphics/SVG/1.1/DTD/svg11.dtd">
<svg version="1.1" id="Layer_1" xmlns="http://www.w3.org/2000/svg" xmlns:xlink="http://www.w3.org/1999/xlink" x="0px" y="0px"
	 width="25px" height="25px" viewBox="0 0 25 25" enable-background="new 0 0 25 25" xml:space="preserve">
<g>
	<path fill="#FF0000" d="M21.339,3.673C16.465-1.201,8.532-1.215,3.66,3.657C-1.213,8.53-1.212,16.447,3.676,21.336
		c4.872,4.871,12.789,4.872,17.662-0.001C26.21,16.463,26.21,8.545,21.339,3.673L21.339,3.673z M4.91,20.102
		C0.723,15.914,0.722,9.093,4.909,4.905c4.187-4.187,11.009-4.187,15.196,0.001c4.187,4.187,4.187,11.008-0.001,15.195
		S9.097,24.288,4.91,20.102L4.91,20.102z M4.91,20.102"/>
	<path fill="#FF0000" d="M17.272,15.869l-3.44-3.441l3.456-3.457c0.351-0.35,0.35-0.899,0-1.248
		c-0.351-0.351-0.898-0.351-1.249-0.001l-3.441,3.441l-3.44-3.441c-0.351-0.35-0.897-0.351-1.25,0
		c-0.35,0.35-0.349,0.897,0.002,1.247l3.44,3.441l-3.441,3.441c-0.352,0.352-0.35,0.898,0.001,1.249c0.35,0.35,0.896,0.352,1.248,0
		l3.442-3.441l3.44,3.44c0.351,0.351,0.897,0.352,1.247,0.002C17.639,16.752,17.623,16.22,17.272,15.869L17.272,15.869z
		 M17.272,15.869"/>
</g>
</svg>
